# xmcd CD database file
#
# Track frame offsets:
#	150
#	22455
#	43760
#	70427
#	87537
#	112802
#	143827
#	159195
#	190602
#	211997
#	225912
#
# Disc length: 3377 seconds
#
# Revision: 0
# Processed by: cddbd v1.5.2PL0 Copyright (c) Steve Scherf et al.
# Submitted via: CDex 1.70beta2
#
DISCID=910d2f0b
DTITLE=Dianne Reeves - The Best Of Dianne Reeves
DYEAR=1997
DGENRE=Jazz
TTITLE0=Softly As In A Morning Sunrise
TTITLE1=Wrapped Around Your Finger
TTITLE2=The Fool On The Hill
TTITLE3=Hello (Haven't I Seen You Before)
TTITLE4=Never Said (Chan's Song)
TTITLE5=Tommorow Never Knows
TTITLE6=Cherokee
TTITLE7=Maiden Voyage
TTITLE8=Sky Islands
TTITLE9=Oh What A Freedom
TTITLE10=When I Cry
EXTD=YEAR: 1997
EXTT0=
EXTT1=
EXTT2=
EXTT3=
EXTT4=
EXTT5=
EXTT6=
EXTT7=
EXTT8=
EXTT9=
EXTT10=
PLAYORDER=
